HIERARCHY
ROOT Hips
{
  OFFSET -32.5998 29.0326 120.673
  CHANNELS 6 Xposition Yposition Zposition Zrotation Xrotation Yrotation
  JOINT LeftUpLeg
  {
    OFFSET 8.64259 1.95398 -2.38835
    CHANNELS 3 Zrotation Xrotation Yrotation
    JOINT LeftLeg
    {
      OFFSET 43.7702 0 0
      CHANNELS 3 Zrotation Xrotation Yrotation
      JOINT LeftFoot
      {
        OFFSET 40.6238 0 0
        CHANNELS 3 Zrotation Xrotation Yrotation
        JOINT LeftToeBase
        {
          OFFSET 12.7242 0 0
          CHANNELS 3 Zrotation Xrotation Yrotation
          End Site
          {
            OFFSET 0 0 0
          }
        }
      }
    }
  }
  JOINT RightUpLeg
  {
    OFFSET -8.2249 1.95398 -2.59336
    CHANNELS 3 Zrotation Xrotation Yrotation
    JOINT RightLeg
    {
      OFFSET 43.5653 0 0
      CHANNELS 3 Zrotation Xrotation Yrotation
      JOINT RightFoot
      {
        OFFSET 40.6238 0 0
        CHANNELS 3 Zrotation Xrotation Yrotation
        JOINT RightToeBase
        {
          OFFSET 12.7242 0 0
          CHANNELS 3 Zrotation Xrotation Yrotation
          End Site
          {
            OFFSET 0 0 0
          }
        }
      }
    }
  }
  JOINT Spine
  {
    OFFSET 0.165834 0.87714 6.61349
    CHANNELS 3 Zrotation Xrotation Yrotation
    JOINT Spine1
    {
      OFFSET 7.38963 1.71661e-005 0
      CHANNELS 3 Zrotation Xrotation Yrotation
      JOINT Spine2
      {
        OFFSET 11.9445 1.14441e-005 0
        CHANNELS 3 Zrotation Xrotation Yrotation
        JOINT Spine3
        {
          OFFSET 14.7254 4.19617e-005 0
          CHANNELS 3 Zrotation Xrotation Yrotation
          JOINT Spine4
          {
            OFFSET 10.9679 0 0
            CHANNELS 3 Zrotation Xrotation Yrotation
            JOINT RightShoulder
            {
              OFFSET 2.46616 -1.6653 3.69651
              CHANNELS 3 Zrotation Xrotation Yrotation
              JOINT RightArm
              {
                OFFSET 13.0012 0 0
                CHANNELS 3 Zrotation Xrotation Yrotation
                JOINT RightForeArm
                {
                  OFFSET 28.7848 1.62311e-005 0
                  CHANNELS 3 Zrotation Xrotation Yrotation
                  JOINT RightHand
                  {
                    OFFSET 26.5688 1.62095e-005 0
                    CHANNELS 3 Zrotation Xrotation Yrotation
                    End Site
                    {
                      OFFSET 0 0 0
                    }
                  }
                }
              }
            }
            JOINT LeftShoulder
            {
              OFFSET 2.38034 -1.29275 -3.7523
              CHANNELS 3 Zrotation Xrotation Yrotation
              JOINT LeftArm
              {
                OFFSET 16.3182 6.07031e-005 0
                CHANNELS 3 Zrotation Xrotation Yrotation
                JOINT LeftForeArm
                {
                  OFFSET 27.0901 0 0
                  CHANNELS 3 Zrotation Xrotation Yrotation
                  JOINT LeftHand
                  {
                    OFFSET 24.5451 1.51738e-005 0
                    CHANNELS 3 Zrotation Xrotation Yrotation
                    End Site
                    {
                      OFFSET 0 0 0
                    }
                  }
                }
              }
            }
            JOINT Neck
            {
              OFFSET 5.0226 -0.0266342 0
              CHANNELS 3 Zrotation Xrotation Yrotation
              JOINT Head
              {
                OFFSET 6.69364 2.86102e-005 0
                CHANNELS 3 Zrotation Xrotation Yrotation
                End Site
                {
                  OFFSET 0 0 0
                }
              }
            }
          }
        }
      }
    }
  }
}
MOTION
Frames:	9
Frame Time:	0.0416667
250.553 93.1671 255.549 -70.5135 41.8208 -104.613 -170.501 53.4624 82.7276 -49.5725 6.7088 -4.33782 80.0812 10.6831 -1.80148 28.0297 -0.568122 0.631718 -172.764 -7.12739 105.877 -25.4428 -17.577 -27.0256 -17.0712 4.04154 60.7957 50.1915 -9.6793 18.8936 2.12199 7.67026 -89.4193 11.5263 4.49321 0.696537 -0.136931 4.51947 0.497692 -22.7242 4.07582 2.0168 -2.71157 4.07584 2.0168 95.2923 -14.6349 -100.692 27.8108 -1.21468 -21.2999 -41.1924 6.74155 -91.2202 -4.86486 -0.086273 -3.50508 -87.6569 -35.0967 79.1452 -33.1881 40.3903 38.3022 90.0787 -45.7056 -82.3285 -0.988396 -0.0329069 0.397178 35.0208 -11.6588 -6.11072 -13.1007 -8.62586 3.14603 
243.255 93.3796 248.434 -75.6367 42.3806 -99.9922 -171.161 43.5548 85.1227 -46.7337 9.80389 -4.17887 79.7331 10.8219 -1.53211 24.3761 -3.02802 2.62399 -174.626 -2.79321 105.464 -45.3183 -19.028 -23.8427 -11.7768 21.7084 54.1484 45.6678 -8.75352 21.8635 1.841 7.95829 -89.4946 10.9516 3.89922 0.637542 -0.713533 3.92348 0.465048 -23.2881 3.52713 1.7813 -3.2755 3.52712 1.7813 92.6518 -20.4108 -104.916 29.4848 -10.6974 -12.7143 -39.6927 6.95954 -86.8425 -5.69613 -0.158365 -2.20469 -88.2146 -42.6916 79.9505 -19.0793 36.8418 17.3634 86.3566 -38.5009 -84.666 2.07115 0.17284 2.49061 32.3286 -11.0398 -8.48134 -12.1303 -7.15924 2.72021 
235.582 93.0531 242.093 -80.7028 37.9834 -100.264 -173.386 33.0827 81.0361 -44.0713 9.61234 -3.47607 77.1967 10.1012 3.52361e-005 25.1191 -1.3422 -0.12947 176.306 9.54836 94.668 -68.7445 -20.606 -11.7002 4.20653 31.8761 32.2687 49.4707 -9.67403 21.84 0.844773 8.24229 -89.0546 10.368 2.11566 1.69447 -1.30261 2.18819 1.59972 -23.8327 1.50883 2.25173 -3.82001 1.50883 2.25174 91.5172 -25.0286 -105.562 35.5684 -18.4914 -4.35456 -45.0325 2.22037 -78.3576 -3.12381 -0.0539827 -3.6457 -89.6966 -47.743 78.7021 -11.8199 31.4364 0.903553 80.7015 -32.4096 -88.5757 4.26468 0.20161 2.69249 28.9308 -10.1713 -11.5243 -11.9585 -5.4487 2.96681 
229.032 92.3361 235.418 -79.6186 38.8631 -100.691 -171.48 27.5945 82.4032 -46.8437 4.52436 -3.63441 88.2784 14.7617 -6.13602 19.2243 -2.81555 -2.27447 177.118 21.3194 88.5811 -82.1337 -12.7305 -4.30935 23.7212 25.8009 8.69717 72.883 -11.2881 38.7643 0.443351 7.96123 -88.886 10.9344 1.39802 2.08242 -0.737364 1.4883 2.01889 -23.2616 0.707712 2.40613 -3.24891 0.707735 2.40613 91.5046 -27.6886 -104.582 42.9692 -19.5485 5.23475 -50.6893 -8.24757 -71.6885 -3.36972 -0.042309 -4.42692 -90.6521 -49.7382 77.6955 -6.11148 35.1231 -16.9032 71.6841 -29.2508 -87.5685 -9.63632 0.308639 -6.91007 24.4683 -7.94986 -13.6444 -10.8649 -2.97707 2.25128 
223.303 90.9926 229.419 -79.6275 39.1043 -101.743 -170.63 21.6491 83.0227 -47.3232 6.26671 -3.799 90.2426 17.0585 -4.53723 32.8902 4.17817 -7.2437 177.577 31.2335 90.8572 -94.3915 -6.09782 -4.61728 54.4237 6.9483 -7.23759 67.0455 -12.4373 28.8269 -0.137536 8.01096 -88.7465 10.842 0.305198 2.46458 -0.831179 0.413329 2.44877 -23.3479 -0.449405 2.44242 -3.33529 -0.449386 2.44242 93.0729 -26.9066 -101.57 48.3587 -14.5382 14.5795 -49.486 -13.1769 -67.866 -4.58905 -0.11632 -2.52865 -90.7486 -48.2612 77.2088 5.30926 32.8137 -42.3436 68.5658 -26.9432 -86.045 -19.6637 1.32322 -13.6477 24.1845 -5.16473 -13.2623 -9.67491 -0.316827 0.186802 
216.488 89.875 222.614 -82.0739 37.2108 -98.5768 -171.003 11.9865 87.4298 -44.375 7.92646 -2.58701 97.3675 20.9426 -7.26401 32.273 2.47327 -2.92799 177.768 35.9486 91.7713 -96.2416 -7.49808 -4.13339 73.4654 -8.40066 -10.1599 34.1665 -4.94378 13.9068 -1.09309 7.94583 -88.7903 10.9973 -1.61607 2.54163 -0.675257 -1.50271 2.61023 -23.2041 -2.30488 1.93882 -3.1915 -2.30488 1.93882 93.9166 -26.9748 -99.6253 49.3337 -9.67315 24.2059 -77.1005 -25.5099 -77.1555 10.0588 -1.19412 -16.3548 -90.4479 -42.5092 76.3319 4.51711 21.3936 -52.7476 72.7804 -27.9578 -87.242 -8.52194 0.0518688 -6.3124 20.2617 -1.8568 -15.1391 -9.05262 2.74352 1.45107 
209.071 89.9349 215.294 -82.6989 36.8381 -94.2954 -169.581 0.131679 89.9306 -36.7525 11.6202 -1.32253 95.2999 21.4978 -4.9485 38.1457 3.89143 -0.848111 176.974 44.5034 95.3385 -91.3288 -3.19297 -3.14877 78.4691 -10.8364 -6.62547 18.0801 1.09701 10.7011 -2.249 7.73076 -88.8053 11.5394 -3.91684 2.70943 -0.127674 -3.79372 2.87925 -22.7116 -4.55022 1.4053 -2.69898 -4.55021 1.4053 91.649 -29.6308 -103.473 44.5548 -6.22338 34.4827 -42.541 -13.2194 -64.6407 -2.98208 0.155856 -7.06383 -86.7641 -31.6798 79.9576 -1.93914 7.68337 -54.0146 73.7169 -30.0036 -92.7761 -2.4723 -0.142037 2.83869 18.262 3.00302 -18.8825 -11.5123 8.11143 3.03973 
200.885 91.4791 207.269 -83.4243 38.0146 -90.7014 -167.862 -9.12114 97.8523 -25.3589 16.8533 -0.174317 79.2685 14.8347 3.09514 53.0912 9.54603 -2.39517 176.504 49.435 98.4131 -79.8905 0.362675 -1.944 77.2557 -8.92884 -5.44866 17.6858 1.54301 10.0352 -2.52692 8.02132 -90.0258 10.8396 -5.04314 0.428436 -0.821803 -5.01938 0.650534 -23.4323 -4.93812 -1.11084 -3.41961 -4.93812 -1.11084 96.4178 -16.6175 -97.0824 45.3524 -5.16843 37.821 -55.8007 -16.282 -70.3742 6.64211 -0.488394 -12.1226 -86.7366 -28.2347 79.1123 -5.11801 -1.19472 -61.8173 67.3517 -27.8936 -96.4106 -0.732902 0.00696217 3.14146 21.2849 7.6656 -6.15755 -11.5395 9.54773 -1.5664 
192.107 93.2826 198.862 -83.6333 39.6208 -87.917 -167.051 -17.4425 100.141 -16.8894 19.2626 1.21111 59.3058 1.39375 3.99022 61.6018 12.2918 -1.27868 177.425 49.9917 99.7708 -63.5211 -0.076733 -0.518724 73.5987 -6.07639 -4.05617 18.7475 1.33998 9.49282 -3.0413 7.98128 -90.4228 10.9173 -6.25058 -0.250733 -0.738513 -6.25552 0.0256942 -23.3843 -5.88521 -2.12423 -3.37163 -5.88524 -2.12424 95.2359 -15.3366 -100.567 41.2184 -1.95176 44.1327 -46.9513 -10.8805 -68.4008 -1.42297 -0.0102962 -7.5504 -84.0225 -19.9192 82.6534 -10.8927 -4.75805 -58.2216 62.8477 -28.4744 -101.305 2.47197 0.27633 4.28598 24.5915 10.9313 -6.39781 -17.5334 12.648 1.07153 
